<?xml version="1.0" encoding="iso-8859-1"?>
<!-- Generator: Adobe Illustrator 18.0.0, SVG Export Plug-In . SVG Version: 6.00 Build 0)  -->
<!DOCTYPE svg PUBLIC "-//W3C//DTD SVG 1.1//EN" "http://www.w3.org/Graphics/SVG/1.1/DTD/svg11.dtd">
<svg version="1.1" id="Capa_1" xmlns="http://www.w3.org/2000/svg" xmlns:xlink="http://www.w3.org/1999/xlink" x="0px" y="0px"
	 viewBox="0 0 442.683 442.683" style="enable-background:new 0 0 442.683 442.683;" xml:space="preserve">
<path fill="#fff" stroke-width="50" d="M442.306,385.99c-0.971-3.456-4.559-5.469-8.016-4.5l-39.722,11.162c-0.809-5.631-3.374-11.056-7.696-15.378l-25.891-25.891
	c1.57,0.122,3.151,0.204,4.752,0.204c3.59,0,6.5-2.91,6.5-6.5s-2.91-6.5-6.5-6.5c-26.282,0-47.664-21.382-47.664-47.665V270.45
	c0-3.59-2.91-6.5-6.5-6.5h-44.031c-8.024,0-14.553-6.528-14.553-14.553s6.529-14.553,14.553-14.553h41.659
	c16.316,0,32.594,3.977,47.072,11.501c23.899,12.42,41.653,33.365,49.991,58.975l1.625,4.991c1.112,3.414,4.785,5.28,8.193,4.168
	c3.414-1.111,5.28-4.78,4.168-8.193l-1.625-4.991c-3.449-10.593-8.331-20.473-14.456-29.435l20.383-3.658
	c3.534-0.634,5.884-4.013,5.25-7.546c-0.634-3.534-4.012-5.883-7.546-5.25l-27.146,4.872c-9.186-10.291-20.258-18.929-32.843-25.469
	c-16.323-8.482-34.673-12.966-53.067-12.966h-41.659c-9.779,0-18.378,5.125-23.269,12.825L11.496,1.904
	C9.673,0.081,6.945-0.493,4.544,0.443c-2.402,0.934-4.025,3.2-4.137,5.775c-3.538,81.366,27.462,161.06,85.05,218.648l77.741,77.741
	c1.27,1.27,2.933,1.904,4.596,1.904c1.663,0,3.327-0.635,4.596-1.904l17.175-17.175l23.881,23.888l-3.478,1.13
	c-6.117,1.987-11.093,6.238-14.013,11.968c-2.92,5.73-3.433,12.254-1.445,18.371c3.303,10.164,12.764,16.638,22.915,16.638
	c0.876,0,1.757-0.066,2.64-0.165c-0.741,3.858-0.551,7.948,0.747,11.941c0,0,0,0,0,0c3.303,10.164,12.764,16.638,22.916,16.638
	c0.871,0,1.748-0.066,2.627-0.163c-0.755,3.937-0.513,8.022,0.76,11.94c1.987,6.117,6.238,11.093,11.968,14.012
	c3.436,1.751,7.157,2.636,10.905,2.636c0.894,0,1.789-0.069,2.682-0.17c-0.74,3.857-0.549,7.946,0.748,11.938
	c1.987,6.116,6.238,11.092,11.968,14.012c3.436,1.75,7.157,2.636,10.904,2.636c2.502,0,5.017-0.395,7.466-1.191l31.664-10.289
	c4.98,4.39,11.307,6.793,18.008,6.793c7.289,0,14.14-2.837,19.292-7.989l14.144-14.144c2.721-2.721,4.742-5.879,6.071-9.25
	l44.871-12.608C441.262,393.035,443.276,389.446,442.306,385.99z M305.272,295.672L286.55,276.95h18.519v13.973
	C305.068,292.523,305.15,294.103,305.272,295.672z M167.794,288.819l-73.145-73.145C43.214,164.238,13.98,94.345,13.152,21.944
	l210.755,210.754L167.794,288.819z M206.874,336.771c-0.914-2.814-0.678-5.815,0.665-8.451s3.632-4.591,6.447-5.506
	c0,0,34.322-10.958,35.474-10.958c1.724,0,3.436,0.408,5.017,1.213c2.636,1.343,4.591,3.632,5.506,6.446
	c1.887,5.808-1.302,12.067-7.109,13.957l-32.042,10.411C215.027,345.771,208.762,342.58,206.874,336.771z M233.177,365.187
	L233.177,365.187c-1.887-5.807,1.301-12.065,7.106-13.956l32.045-10.412c2.815-0.914,5.816-0.677,8.451,0.665
	c2.636,1.343,4.592,3.632,5.506,6.446c1.887,5.807-1.3,12.064-7.104,13.955l-32.046,10.413
	C241.324,374.187,235.064,370.995,233.177,365.187z M264.985,400.048c-2.636-1.343-4.591-3.632-5.505-6.446l0,0
	c-0.914-2.814-0.678-5.815,0.665-8.451c1.342-2.634,3.628-4.588,6.439-5.503l32.046-10.413c1.133-0.368,2.283-0.543,3.415-0.543
	c4.67,0,9.023,2.979,10.543,7.655c0.914,2.814,0.678,5.815-0.665,8.451s-3.632,4.591-6.447,5.506l-32.039,10.411
	C270.621,401.628,267.621,401.391,264.985,400.048z M299.739,429.129c-2.814,0.916-5.814,0.678-8.451-0.665
	c-2.636-1.343-4.591-3.632-5.506-6.446c-0.914-2.814-0.678-5.815,0.665-8.452c1.343-2.636,3.633-4.591,6.447-5.506l32.039-10.41
	c5.813-1.888,12.07,1.303,13.958,7.111c0.914,2.814,0.678,5.815-0.665,8.451s-3.632,4.591-6.446,5.506L299.739,429.129z
	 M377.671,406.672l-14.144,14.144c-2.696,2.696-6.283,4.181-10.099,4.181c-2.286,0-4.485-0.543-6.464-1.55
	c1.084-1.327,2.047-2.769,2.843-4.332c2.92-5.73,3.433-12.254,1.446-18.37c-3.586-11.035-14.434-17.723-25.539-16.494
	c0.75-3.932,0.507-8.01-0.764-11.922c-3.587-11.039-14.44-17.727-25.552-16.492c0.737-3.853,0.545-7.937-0.751-11.924
	c-1.987-6.116-6.238-11.092-11.968-14.012c-4.254-2.168-8.946-3.006-13.583-2.482c0.737-3.852,0.544-7.935-0.751-11.921
	c-1.987-6.117-6.238-11.093-11.968-14.012c-5.73-2.921-12.255-3.433-18.371-1.445l-14.685,4.771l-28.564-28.572l34.348-34.348
	l6.893,6.893c-0.005,0.204-0.016,0.407-0.016,0.612c0,15.193,12.36,27.553,27.553,27.553h0.627l109.514,109.517
	C383.247,392.035,383.244,401.099,377.671,406.672z"/>
<g>
</g>
<g>
</g>
<g>
</g>
<g>
</g>
<g>
</g>
<g>
</g>
<g>
</g>
<g>
</g>
<g>
</g>
<g>
</g>
<g>
</g>
<g>
</g>
<g>
</g>
<g>
</g>
<g>
</g>
</svg>
