<svg id="Layer_1" height="40" viewBox="0 0 128 128" width="40" xmlns="http://www.w3.org/2000/svg" data-name="Layer 1"><g fill="#df4735"><path d="m121.5 34.226-2.076-4.629.573-5.36-8.518 4.971.875 6.063z"/><path d="m8.576 29.597-2.076 4.629 9.146 1.045.875-6.063-8.518-4.971z"/><path d="m119.997 51.737-8.518 4.972.875 6.063 9.146-1.045-2.076-4.629z"/><path d="m8.576 57.098-2.076 4.629 9.146 1.045.875-6.063-8.518-4.972z"/><path d="m119.997 79.238-8.518 4.972.875 6.063 9.146-1.045-2.076-4.629z"/><path d="m8.576 84.599-2.076 4.629 9.146 1.045.875-6.063-8.518-4.972z"/></g><path d="m114.13 34.11a9.438 9.438 0 0 1 -7.28 8.76 162.062 162.062 0 0 1 -85.7 0c-5.45-1.49-8.47-6.74-6.84-11.32a9.319 9.319 0 0 1 8.88-6.03 9.762 9.762 0 0 1 2.61.35 145.58 145.58 0 0 0 19.51 3.93c1.17.15 2.33.29 3.5.41q6.705.705 13.44.79c1.17.01 2.33.01 3.5 0q6.735-.075 13.44-.79c1.17-.12 2.33-.26 3.5-.41a145.58 145.58 0 0 0 19.51-3.93 9.482 9.482 0 0 1 11.49 5.68 7.577 7.577 0 0 1 .44 2.56z" fill="#fb503c"/><path d="m114.13 34.11a9.438 9.438 0 0 1 -7.28 8.76 162.062 162.062 0 0 1 -85.7 0c-5.45-1.49-8.47-6.74-6.84-11.32a9.319 9.319 0 0 1 8.88-6.03 9.762 9.762 0 0 1 2.61.35 145.58 145.58 0 0 0 19.51 3.93c1.17.15 2.33.29 3.5.41q6.705.705 13.44.79c1.17.01 2.33.01 3.5 0q6.735-.075 13.44-.79c1.17-.12 2.33-.26 3.5-.41a145.58 145.58 0 0 0 19.51-3.93 9.482 9.482 0 0 1 11.49 5.68 7.577 7.577 0 0 1 .44 2.56z" fill="#fb503c"/><path d="m114.13 61.611a9.438 9.438 0 0 1 -7.28 8.76 162.062 162.062 0 0 1 -85.7 0c-5.45-1.49-8.47-6.74-6.84-11.32a9.319 9.319 0 0 1 8.88-6.03 9.762 9.762 0 0 1 2.61.35 145.58 145.58 0 0 0 19.51 3.929c1.17.15 2.33.29 3.5.41q6.705.705 13.44.79c1.17.01 2.33.01 3.5 0q6.735-.075 13.44-.79c1.17-.12 2.33-.26 3.5-.41a145.58 145.58 0 0 0 19.51-3.93 9.482 9.482 0 0 1 11.49 5.68 7.577 7.577 0 0 1 .44 2.561z" fill="#fb503c"/><path d="m114.13 61.611a9.438 9.438 0 0 1 -7.28 8.76 162.062 162.062 0 0 1 -85.7 0c-5.45-1.49-8.47-6.74-6.84-11.32a9.319 9.319 0 0 1 8.88-6.03 9.762 9.762 0 0 1 2.61.35 145.58 145.58 0 0 0 19.51 3.929c1.17.15 2.33.29 3.5.41q6.705.705 13.44.79c1.17.01 2.33.01 3.5 0q6.735-.075 13.44-.79c1.17-.12 2.33-.26 3.5-.41a145.58 145.58 0 0 0 19.51-3.93 9.482 9.482 0 0 1 11.49 5.68 7.577 7.577 0 0 1 .44 2.561z" fill="#fb503c"/><path d="m114.13 89.112a9.438 9.438 0 0 1 -7.28 8.76 162.062 162.062 0 0 1 -85.7 0c-5.45-1.49-8.47-6.74-6.84-11.32a9.319 9.319 0 0 1 8.88-6.03 9.762 9.762 0 0 1 2.61.35 145.58 145.58 0 0 0 19.51 3.928c1.17.15 2.33.29 3.5.41q6.705.705 13.44.79c1.17.01 2.33.01 3.5 0q6.735-.075 13.44-.79c1.17-.12 2.33-.26 3.5-.41a145.58 145.58 0 0 0 19.51-3.93 9.482 9.482 0 0 1 11.49 5.68 7.577 7.577 0 0 1 .44 2.562z" fill="#fb503c"/><path d="m114.13 89.112a9.438 9.438 0 0 1 -7.28 8.76 162.062 162.062 0 0 1 -85.7 0c-5.45-1.49-8.47-6.74-6.84-11.32a9.319 9.319 0 0 1 8.88-6.03 9.762 9.762 0 0 1 2.61.35 145.58 145.58 0 0 0 19.51 3.928c1.17.15 2.33.29 3.5.41q6.705.705 13.44.79c1.17.01 2.33.01 3.5 0q6.735-.075 13.44-.79c1.17-.12 2.33-.26 3.5-.41a145.58 145.58 0 0 0 19.51-3.93 9.482 9.482 0 0 1 11.49 5.68 7.577 7.577 0 0 1 .44 2.562z" fill="#fb503c"/><path d="m106.853 70.434a162.205 162.205 0 0 1 -85.706 0c-5.444-1.488-8.463-6.74-6.832-11.321a9.473 9.473 0 0 1 11.485-5.681 144.579 144.579 0 0 0 76.391 0 9.473 9.473 0 0 1 11.49 5.681c1.634 4.582-1.381 9.834-6.828 11.321z" fill="none"/><path d="m106.853 42.871a162.205 162.205 0 0 1 -85.706 0c-5.444-1.488-8.463-6.74-6.832-11.321a9.473 9.473 0 0 1 11.485-5.681 144.579 144.579 0 0 0 76.391 0 9.473 9.473 0 0 1 11.49 5.681c1.634 4.582-1.381 9.834-6.828 11.321z" fill="none"/><path d="m106.853 98a162.205 162.205 0 0 1 -85.706 0c-5.444-1.488-8.463-6.74-6.832-11.321a9.473 9.473 0 0 1 11.485-5.679 144.579 144.579 0 0 0 76.4 0 9.473 9.473 0 0 1 11.49 5.681c1.625 4.577-1.39 9.829-6.837 11.319z" fill="none"/><path d="m121.211 56.879.529-4.888a1.75 1.75 0 0 0 -2.622-1.7l-6.7 3.913a11.522 11.522 0 0 0 -10.681-2.461 143.371 143.371 0 0 1 -68.642 1.69 1.75 1.75 0 1 0 -.758 3.417q6.437 1.427 12.978 2.261v7.077a1.75 1.75 0 0 0 3.5 0v-6.68q6.7.695 13.438.774v7.278a1.75 1.75 0 0 0 3.5 0v-7.283q6.733-.081 13.438-.776v6.689a1.75 1.75 0 0 0 3.5 0v-7.1a145.625 145.625 0 0 0 19.967-3.973 7.719 7.719 0 0 1 9.382 4.579 6.208 6.208 0 0 1 -.424 4.99 8.3 8.3 0 0 1 -5.223 4.056 160.52 160.52 0 0 1 -84.782 0 8.3 8.3 0 0 1 -5.222-4.057 6.2 6.2 0 0 1 -.423-4.99 7.722 7.722 0 0 1 9.381-4.579 1.75 1.75 0 0 0 .92-3.377 11.511 11.511 0 0 0 -10.683 2.461l-6.7-3.912a1.75 1.75 0 0 0 -2.622 1.7l.529 4.888-1.891 4.2a1.751 1.751 0 0 0 1.4 2.456l6.173.705a10.4 10.4 0 0 0 .81 2.072 11.81 11.81 0 0 0 7.4 5.813 163.916 163.916 0 0 0 43.317 5.822 163.984 163.984 0 0 0 43.313-5.822 11.812 11.812 0 0 0 7.4-5.812 10.4 10.4 0 0 0 .81-2.073l6.173-.705a1.751 1.751 0 0 0 1.4-2.456zm-111.1-1.816 3.268 1.907a10.4 10.4 0 0 0 -.715 1.557 9.384 9.384 0 0 0 -.483 2.154l-3.106-.355 1.1-2.446a1.758 1.758 0 0 0 .144-.906zm105.7 5.618a9.394 9.394 0 0 0 -.482-2.154 10.377 10.377 0 0 0 -.716-1.557l3.268-1.907-.207 1.912a1.758 1.758 0 0 0 .144.906l1.1 2.446z" fill="#26180d"/><path d="m6.3 35.969 6.173.705a10.4 10.4 0 0 0 .81 2.072 11.81 11.81 0 0 0 7.4 5.813 163.916 163.916 0 0 0 43.317 5.825q.812 0 1.624-.008a1.75 1.75 0 0 0 -.018-3.5h-.018a159.957 159.957 0 0 1 -43.979-5.693 8.3 8.3 0 0 1 -5.222-4.057 6.2 6.2 0 0 1 -.423-4.99 7.714 7.714 0 0 1 9.379-4.579 146.175 146.175 0 0 0 19.969 3.988v7.082a1.75 1.75 0 0 0 3.5 0v-6.672q6.7.7 13.438.769v7.276a1.75 1.75 0 0 0 3.5 0v-7.276q6.73-.08 13.438-.769v6.672a1.75 1.75 0 0 0 3.5 0v-7.082a146.167 146.167 0 0 0 19.967-3.987 7.719 7.719 0 0 1 9.382 4.579 6.208 6.208 0 0 1 -.424 4.99 8.3 8.3 0 0 1 -5.224 4.056 160.823 160.823 0 0 1 -24.2 4.667 1.75 1.75 0 0 0 .4 3.478 164.388 164.388 0 0 0 24.731-4.769 11.812 11.812 0 0 0 7.4-5.812 10.4 10.4 0 0 0 .81-2.073l6.173-.705a1.751 1.751 0 0 0 1.4-2.456l-1.886-4.2.529-4.888a1.75 1.75 0 0 0 -2.622-1.7l-6.7 3.913a11.521 11.521 0 0 0 -10.682-2.461 142.888 142.888 0 0 1 -75.469 0 11.515 11.515 0 0 0 -10.681 2.46l-6.7-3.912a1.75 1.75 0 0 0 -2.622 1.7l.529 4.888-1.899 4.2a1.751 1.751 0 0 0 1.4 2.456zm111.521-5.651 1.1 2.446-3.105.355a9.394 9.394 0 0 0 -.482-2.154 10.377 10.377 0 0 0 -.716-1.557l3.268-1.907-.207 1.912a1.758 1.758 0 0 0 .144.904zm-107.708-2.818 3.268 1.907a10.4 10.4 0 0 0 -.715 1.557 9.384 9.384 0 0 0 -.483 2.154l-3.106-.355 1.1-2.446a1.758 1.758 0 0 0 .144-.906z" fill="#26180d"/><path d="m72.556 46.656a1.75 1.75 0 0 0 .092 3.5h.1q1.575-.084 3.15-.2a1.75 1.75 0 0 0 -.254-3.491q-1.544.109-3.088.191z" fill="#26180d"/><path d="m121.211 84.442.529-4.888a1.75 1.75 0 0 0 -2.622-1.7l-6.7 3.913a11.522 11.522 0 0 0 -10.681-2.461 142.883 142.883 0 0 1 -75.469 0 11.513 11.513 0 0 0 -10.681 2.46l-6.7-3.912a1.75 1.75 0 0 0 -2.622 1.7l.529 4.888-1.894 4.197a1.751 1.751 0 0 0 1.4 2.456l6.173.705a10.4 10.4 0 0 0 .81 2.072 11.81 11.81 0 0 0 7.4 5.813c4.949 1.356 10.023 2.492 15.082 3.376a1.75 1.75 0 0 0 .6-3.447c-4.951-.866-9.917-1.978-14.762-3.3a8.3 8.3 0 0 1 -5.222-4.057 6.2 6.2 0 0 1 -.423-4.99 7.714 7.714 0 0 1 9.379-4.579 146.175 146.175 0 0 0 19.969 3.988v7.082a1.75 1.75 0 0 0 3.5 0v-6.677q6.7.7 13.438.769v7.273a1.75 1.75 0 0 0 3.5 0v-7.273q6.73-.08 13.438-.769v6.672a1.75 1.75 0 0 0 3.5 0v-7.082a146.167 146.167 0 0 0 19.967-3.987 7.719 7.719 0 0 1 9.382 4.579 6.207 6.207 0 0 1 -.424 4.99 8.3 8.3 0 0 1 -5.223 4.057 159.669 159.669 0 0 1 -62.38 4.451 1.75 1.75 0 1 0 -.436 3.473 164.722 164.722 0 0 0 20.532 1.288 163.208 163.208 0 0 0 43.211-5.837 11.81 11.81 0 0 0 7.4-5.813 10.4 10.4 0 0 0 .81-2.073l6.173-.705a1.751 1.751 0 0 0 1.4-2.456zm-111.1-1.816 3.268 1.907a10.4 10.4 0 0 0 -.715 1.557 9.384 9.384 0 0 0 -.483 2.154l-3.106-.355 1.1-2.446a1.758 1.758 0 0 0 .144-.906zm105.7 5.618a9.394 9.394 0 0 0 -.482-2.154 10.377 10.377 0 0 0 -.716-1.557l3.268-1.907-.207 1.912a1.758 1.758 0 0 0 .144.906l1.1 2.446z" fill="#26180d"/></svg>