<svg id="Layer_2" height="30" viewBox="0 0 128 128" width="30" xmlns="http://www.w3.org/2000/svg" data-name="Layer 2"><g fill="#f43d58"><rect height="99.667" rx="11" width="30.583" x="7.667" y="14.167"/><path d="m18.667 14.167h8.583a10.99 10.99 0 0 1 1.88.172 19.484 19.484 0 0 0 4.641-12.589h-21.625a19.479 19.479 0 0 0 4.641 12.589 10.981 10.981 0 0 1 1.88-.172z"/><path d="m18.667 113.833h8.583a10.99 10.99 0 0 0 1.88-.172 19.484 19.484 0 0 1 4.641 12.589h-21.625a19.479 19.479 0 0 1 4.641-12.589 10.981 10.981 0 0 0 1.88.172z"/><rect height="99.667" rx="11" width="30.583" x="48.708" y="14.167"/><rect height="99.667" rx="11" width="30.583" x="48.708" y="14.167"/><path d="m59.708 14.167h8.584a10.99 10.99 0 0 1 1.88.172 19.484 19.484 0 0 0 4.64-12.589h-21.625a19.484 19.484 0 0 0 4.641 12.589 10.99 10.99 0 0 1 1.88-.172z"/><path d="m59.708 113.833h8.584a10.99 10.99 0 0 0 1.88-.172 19.484 19.484 0 0 1 4.64 12.589h-21.625a19.484 19.484 0 0 1 4.641-12.589 10.99 10.99 0 0 0 1.88.172z"/><rect height="99.667" rx="11" width="30.583" x="89.75" y="14.167"/><path d="m100.75 14.167h8.583a10.981 10.981 0 0 1 1.88.172 19.479 19.479 0 0 0 4.641-12.589h-21.625a19.484 19.484 0 0 0 4.641 12.589 10.99 10.99 0 0 1 1.88-.172z"/><path d="m100.75 113.833h8.583a10.981 10.981 0 0 0 1.88-.172 19.479 19.479 0 0 1 4.641 12.589h-21.625a19.484 19.484 0 0 1 4.641-12.589 10.99 10.99 0 0 0 1.88.172z"/></g><path d="m32.022 13.352a21.2 21.2 0 0 0 3.5-11.6 1.751 1.751 0 0 0 -1.751-1.752h-21.625a1.75 1.75 0 0 0 0 3.5h19.787a17.806 17.806 0 0 1 -3.548 8.973c-.387-.038-.764-.056-1.135-.056h-8.583c-.366 0-.738.02-1.12.056-.314.028-.623.074-.93.124-.044.007-.085.01-.13.017l-.02.006a12.761 12.761 0 0 0 -10.55 12.547v77.666a12.763 12.763 0 0 0 7.977 11.815 21.2 21.2 0 0 0 -3.5 11.6 1.75 1.75 0 0 0 1.75 1.75h21.627a1.751 1.751 0 0 0 1.75-1.75 21.2 21.2 0 0 0 -3.5-11.6 12.764 12.764 0 0 0 7.979-11.815v-77.666a12.764 12.764 0 0 0 -7.978-11.815zm-3.637 102.175a17.8 17.8 0 0 1 3.548 8.973h-17.95a17.806 17.806 0 0 1 3.548-8.973c.388.038.764.056 1.136.056h8.583c.371 0 .75-.018 1.135-.056zm8.115-12.694a9.259 9.259 0 0 1 -7.654 9.1h-.015c-.276.047-.538.082-.792.107s-.523.039-.789.039h-8.583c-.267 0-.529-.017-.79-.04s-.516-.059-.792-.106h-.014a9.258 9.258 0 0 1 -7.654-9.1v-77.666a9.259 9.259 0 0 1 7.645-9.1h.023c.276-.047.538-.082.792-.106s.523-.04.79-.04h8.583c.266 0 .528.017.789.039s.516.06.792.107h.015a9.259 9.259 0 0 1 7.654 9.1z"/><path d="m26.638 42.971-10.083 10.083a1.75 1.75 0 1 0 2.474 2.475l10.083-10.083a1.75 1.75 0 0 0 -2.474-2.475z"/><path d="m26.638 57.721-10.083 10.079a1.75 1.75 0 1 0 2.474 2.475l10.083-10.075a1.75 1.75 0 0 0 -2.474-2.475z"/><path d="m26.638 72.471-10.083 10.083a1.75 1.75 0 1 0 2.474 2.475l10.083-10.083a1.75 1.75 0 0 0 -2.474-2.475z"/><path d="m73.064 13.352a21.2 21.2 0 0 0 3.5-11.6 1.75 1.75 0 0 0 -1.752-1.752h-21.625a1.751 1.751 0 0 0 -1.75 1.75 21.2 21.2 0 0 0 3.5 11.6 12.764 12.764 0 0 0 -7.978 11.815v77.666a12.764 12.764 0 0 0 7.978 11.815 21.2 21.2 0 0 0 -3.5 11.6 1.751 1.751 0 0 0 1.75 1.75h21.625a1.75 1.75 0 0 0 1.75-1.75 21.2 21.2 0 0 0 -3.5-11.6 12.764 12.764 0 0 0 7.978-11.815v-77.664a12.764 12.764 0 0 0 -7.976-11.815zm-14.491-.879a17.809 17.809 0 0 1 -3.548-8.973h17.95a17.809 17.809 0 0 1 -3.548 8.973c-.387-.038-.764-.056-1.135-.056h-8.584c-.371 0-.748.018-1.135.056zm10.854 103.054a17.806 17.806 0 0 1 3.548 8.973h-17.95a17.806 17.806 0 0 1 3.548-8.973c.387.038.764.056 1.135.056h8.584c.371 0 .748-.018 1.135-.056zm8.115-12.694a9.259 9.259 0 0 1 -7.654 9.1h-.015c-.276.047-.538.082-.792.107s-.523.039-.789.039h-8.584c-.266 0-.528-.017-.789-.039s-.516-.06-.792-.107h-.015a9.259 9.259 0 0 1 -7.654-9.1v-77.666a9.259 9.259 0 0 1 7.654-9.1h.015c.276-.047.538-.082.792-.107s.523-.039.789-.039h8.584c.266 0 .528.017.789.039s.516.06.792.107h.025a9.258 9.258 0 0 1 7.644 9.1z"/><path d="m67.68 42.971-10.08 10.083a1.75 1.75 0 1 0 2.474 2.475l10.08-10.083a1.75 1.75 0 0 0 -2.474-2.475z"/><path d="m67.68 57.721-10.08 10.079a1.75 1.75 0 1 0 2.474 2.475l10.08-10.075a1.75 1.75 0 0 0 -2.474-2.475z"/><path d="m67.68 72.471-10.08 10.083a1.75 1.75 0 1 0 2.474 2.475l10.08-10.083a1.75 1.75 0 0 0 -2.474-2.475z"/><path d="m89.75 74.5a1.75 1.75 0 0 0 1.75-1.75v-2.625a1.75 1.75 0 0 0 -3.5 0v2.625a1.75 1.75 0 0 0 1.75 1.75z"/><path d="m114.106 13.352a21.2 21.2 0 0 0 3.5-11.6 1.75 1.75 0 0 0 -1.752-1.752h-21.625a1.751 1.751 0 0 0 -1.75 1.75 21.2 21.2 0 0 0 3.5 11.6 12.764 12.764 0 0 0 -7.979 11.817v34.833a1.75 1.75 0 0 0 3.5 0v-34.833a9.259 9.259 0 0 1 7.654-9.1h.015c.276-.047.538-.082.792-.107s.523-.039.789-.039h8.583c.267 0 .529.017.79.04s.516.059.792.106h.023a9.259 9.259 0 0 1 7.645 9.1v77.666a9.258 9.258 0 0 1 -7.654 9.1h-.014c-.276.047-.538.082-.792.106s-.523.04-.79.04h-8.583c-.266 0-.528-.017-.789-.039s-.516-.06-.792-.107h-.015a9.259 9.259 0 0 1 -7.654-9.1v-19.958a1.75 1.75 0 0 0 -3.5 0v19.958a12.764 12.764 0 0 0 7.978 11.815 21.2 21.2 0 0 0 -3.5 11.6 1.751 1.751 0 0 0 1.75 1.75h21.625a1.75 1.75 0 0 0 1.75-1.75 21.2 21.2 0 0 0 -3.5-11.6 12.763 12.763 0 0 0 7.977-11.815v-77.666a12.763 12.763 0 0 0 -7.974-11.815zm-13.356-.935c-.371 0-.748.018-1.135.056a17.806 17.806 0 0 1 -3.548-8.973h17.95a17.809 17.809 0 0 1 -3.548 8.973c-.388-.038-.764-.056-1.136-.056zm9.719 103.11a17.806 17.806 0 0 1 3.548 8.973h-17.95a17.8 17.8 0 0 1 3.548-8.973c.387.038.764.056 1.135.056h8.583c.372 0 .748-.018 1.136-.056z"/><path d="m99.875 56.042a1.741 1.741 0 0 0 1.237-.513l10.088-10.083a1.75 1.75 0 0 0 -2.474-2.475l-10.088 10.083a1.751 1.751 0 0 0 1.237 2.988z"/><path d="m98.638 70.279a1.748 1.748 0 0 0 2.474 0l10.088-10.079a1.75 1.75 0 0 0 -2.474-2.475l-10.088 10.075a1.749 1.749 0 0 0 0 2.479z"/><path d="m98.638 85.029a1.748 1.748 0 0 0 2.474 0l10.088-10.083a1.75 1.75 0 0 0 -2.474-2.475l-10.088 10.083a1.749 1.749 0 0 0 0 2.475z"/></svg>